<svg id="visual" viewBox="0 0 900 100" width="900" height="100" xmlns="http://www.w3.org/2000/svg" xmlns:xlink="http://www.w3.org/1999/xlink" version="1.1"><rect x="0" y="0" width="900" height="100" fill="#FF6F00"></rect><path d="M0 41L21.5 41.8C43 42.7 86 44.3 128.8 43.2C171.7 42 214.3 38 257.2 36.8C300 35.7 343 37.3 385.8 36.3C428.7 35.3 471.3 31.7 514.2 29.7C557 27.7 600 27.3 642.8 26.5C685.7 25.7 728.3 24.3 771.2 25C814 25.7 857 28.3 878.5 29.7L900 31L900 101L878.5 101C857 101 814 101 771.2 101C728.3 101 685.7 101 642.8 101C600 101 557 101 514.2 101C471.3 101 428.7 101 385.8 101C343 101 300 101 257.2 101C214.3 101 171.7 101 128.8 101C86 101 43 101 21.5 101L0 101Z" fill="#ff6f00"></path><path d="M0 31L21.5 34.7C43 38.3 86 45.7 128.8 45C171.7 44.3 214.3 35.7 257.2 34.3C300 33 343 39 385.8 41.2C428.7 43.3 471.3 41.7 514.2 40.5C557 39.3 600 38.7 642.8 36.3C685.7 34 728.3 30 771.2 31.7C814 33.3 857 40.7 878.5 44.3L900 48L900 101L878.5 101C857 101 814 101 771.2 101C728.3 101 685.7 101 642.8 101C600 101 557 101 514.2 101C471.3 101 428.7 101 385.8 101C343 101 300 101 257.2 101C214.3 101 171.7 101 128.8 101C86 101 43 101 21.5 101L0 101Z" fill="#ff954f"></path><path d="M0 61L21.5 61.5C43 62 86 63 128.8 60.2C171.7 57.3 214.3 50.7 257.2 50C300 49.3 343 54.7 385.8 57.5C428.7 60.3 471.3 60.7 514.2 60.5C557 60.3 600 59.7 642.8 56.8C685.7 54 728.3 49 771.2 48.8C814 48.7 857 53.3 878.5 55.7L900 58L900 101L878.5 101C857 101 814 101 771.2 101C728.3 101 685.7 101 642.8 101C600 101 557 101 514.2 101C471.3 101 428.7 101 385.8 101C343 101 300 101 257.2 101C214.3 101 171.7 101 128.8 101C86 101 43 101 21.5 101L0 101Z" fill="#ffb889"></path><path d="M0 57L21.5 59.8C43 62.7 86 68.3 128.8 71.5C171.7 74.7 214.3 75.3 257.2 74.3C300 73.3 343 70.7 385.8 70.3C428.7 70 471.3 72 514.2 70.8C557 69.7 600 65.3 642.8 62.5C685.7 59.7 728.3 58.3 771.2 59C814 59.7 857 62.3 878.5 63.7L900 65L900 101L878.5 101C857 101 814 101 771.2 101C728.3 101 685.7 101 642.8 101C600 101 557 101 514.2 101C471.3 101 428.7 101 385.8 101C343 101 300 101 257.2 101C214.3 101 171.7 101 128.8 101C86 101 43 101 21.5 101L0 101Z" fill="#ffdbc3"></path><path d="M0 77L21.5 76.5C43 76 86 75 128.8 74.5C171.7 74 214.3 74 257.2 74.7C300 75.3 343 76.7 385.8 77C428.7 77.3 471.3 76.7 514.2 78.3C557 80 600 84 642.8 83.2C685.7 82.3 728.3 76.7 771.2 75.2C814 73.7 857 76.3 878.5 77.7L900 79L900 101L878.5 101C857 101 814 101 771.2 101C728.3 101 685.7 101 642.8 101C600 101 557 101 514.2 101C471.3 101 428.7 101 385.8 101C343 101 300 101 257.2 101C214.3 101 171.7 101 128.8 101C86 101 43 101 21.5 101L0 101Z" fill="#ffffff"></path></svg>