<svg id="visual" viewBox="0 0 900 100" width="900" height="100" xmlns="http://www.w3.org/2000/svg" xmlns:xlink="http://www.w3.org/1999/xlink" version="1.1"><rect x="0" y="0" width="900" height="100" fill="#ff6f00"></rect><path d="M0 69L21.5 69.2C43 69.3 86 69.7 128.8 72.7C171.7 75.7 214.3 81.3 257.2 84.3C300 87.3 343 87.7 385.8 81.7C428.7 75.7 471.3 63.3 514.2 62.3C557 61.3 600 71.7 642.8 77.8C685.7 84 728.3 86 771.2 86.7C814 87.3 857 86.7 878.5 86.3L900 86L900 0L878.5 0C857 0 814 0 771.2 0C728.3 0 685.7 0 642.8 0C600 0 557 0 514.2 0C471.3 0 428.7 0 385.8 0C343 0 300 0 257.2 0C214.3 0 171.7 0 128.8 0C86 0 43 0 21.5 0L0 0Z" fill="#c62368"></path><path d="M0 59L21.5 58.5C43 58 86 57 128.8 55.5C171.7 54 214.3 52 257.2 49.3C300 46.7 343 43.3 385.8 45.7C428.7 48 471.3 56 514.2 57.2C557 58.3 600 52.7 642.8 54C685.7 55.3 728.3 63.7 771.2 64.3C814 65 857 58 878.5 54.5L900 51L900 0L878.5 0C857 0 814 0 771.2 0C728.3 0 685.7 0 642.8 0C600 0 557 0 514.2 0C471.3 0 428.7 0 385.8 0C343 0 300 0 257.2 0C214.3 0 171.7 0 128.8 0C86 0 43 0 21.5 0L0 0Z" fill="#832f77"></path><path d="M0 26L21.5 28.5C43 31 86 36 128.8 40.5C171.7 45 214.3 49 257.2 48.7C300 48.3 343 43.7 385.8 39.8C428.7 36 471.3 33 514.2 34.7C557 36.3 600 42.7 642.8 45.7C685.7 48.7 728.3 48.3 771.2 49.8C814 51.3 857 54.7 878.5 56.3L900 58L900 0L878.5 0C857 0 814 0 771.2 0C728.3 0 685.7 0 642.8 0C600 0 557 0 514.2 0C471.3 0 428.7 0 385.8 0C343 0 300 0 257.2 0C214.3 0 171.7 0 128.8 0C86 0 43 0 21.5 0L0 0Z" fill="#3c3167"></path><path d="M0 31L21.5 30C43 29 86 27 128.8 26.3C171.7 25.7 214.3 26.3 257.2 27.2C300 28 343 29 385.8 31.5C428.7 34 471.3 38 514.2 39.3C557 40.7 600 39.3 642.8 38.8C685.7 38.3 728.3 38.7 771.2 36.2C814 33.7 857 28.3 878.5 25.7L900 23L900 0L878.5 0C857 0 814 0 771.2 0C728.3 0 685.7 0 642.8 0C600 0 557 0 514.2 0C471.3 0 428.7 0 385.8 0C343 0 300 0 257.2 0C214.3 0 171.7 0 128.8 0C86 0 43 0 21.5 0L0 0Z" fill="#062541"></path><path d="M0 10L21.5 12.2C43 14.3 86 18.7 128.8 18.7C171.7 18.7 214.3 14.3 257.2 11.7C300 9 343 8 385.8 10.2C428.7 12.3 471.3 17.7 514.2 17.7C557 17.7 600 12.3 642.8 11.8C685.7 11.3 728.3 15.7 771.2 16C814 16.3 857 12.7 878.5 10.8L900 9L900 0L878.5 0C857 0 814 0 771.2 0C728.3 0 685.7 0 642.8 0C600 0 557 0 514.2 0C471.3 0 428.7 0 385.8 0C343 0 300 0 257.2 0C214.3 0 171.7 0 128.8 0C86 0 43 0 21.5 0L0 0Z" fill="#001017"></path></svg>