<svg id="visual" viewBox="0 0 900 100" width="900" height="100" xmlns="http://www.w3.org/2000/svg" xmlns:xlink="http://www.w3.org/1999/xlink" version="1.1"><rect x="0" y="0" width="900" height="100" fill="#001722"></rect><path d="M0 39L21.5 34C43 29 86 19 128.8 14.7C171.7 10.3 214.3 11.7 257.2 17.7C300 23.7 343 34.3 385.8 37.3C428.7 40.3 471.3 35.7 514.2 35.7C557 35.7 600 40.3 642.8 40.3C685.7 40.3 728.3 35.7 771.2 35.8C814 36 857 41 878.5 43.5L900 46L900 101L878.5 101C857 101 814 101 771.2 101C728.3 101 685.7 101 642.8 101C600 101 557 101 514.2 101C471.3 101 428.7 101 385.8 101C343 101 300 101 257.2 101C214.3 101 171.7 101 128.8 101C86 101 43 101 21.5 101L0 101Z" fill="#001722"></path><path d="M0 53L21.5 50C43 47 86 41 128.8 39C171.7 37 214.3 39 257.2 42.8C300 46.7 343 52.3 385.8 51.3C428.7 50.3 471.3 42.7 514.2 42.2C557 41.7 600 48.3 642.8 52.5C685.7 56.7 728.3 58.3 771.2 57.2C814 56 857 52 878.5 50L900 48L900 101L878.5 101C857 101 814 101 771.2 101C728.3 101 685.7 101 642.8 101C600 101 557 101 514.2 101C471.3 101 428.7 101 385.8 101C343 101 300 101 257.2 101C214.3 101 171.7 101 128.8 101C86 101 43 101 21.5 101L0 101Z" fill="#242f5c"></path><path d="M0 48L21.5 49C43 50 86 52 128.8 54.5C171.7 57 214.3 60 257.2 61.5C300 63 343 63 385.8 59.2C428.7 55.3 471.3 47.7 514.2 47.3C557 47 600 54 642.8 57.8C685.7 61.7 728.3 62.3 771.2 63.2C814 64 857 65 878.5 65.5L900 66L900 101L878.5 101C857 101 814 101 771.2 101C728.3 101 685.7 101 642.8 101C600 101 557 101 514.2 101C471.3 101 428.7 101 385.8 101C343 101 300 101 257.2 101C214.3 101 171.7 101 128.8 101C86 101 43 101 21.5 101L0 101Z" fill="#843379"></path><path d="M0 58L21.5 59.7C43 61.3 86 64.7 128.8 68.5C171.7 72.3 214.3 76.7 257.2 76.5C300 76.3 343 71.7 385.8 68.8C428.7 66 471.3 65 514.2 67.7C557 70.3 600 76.7 642.8 77.7C685.7 78.7 728.3 74.3 771.2 74.2C814 74 857 78 878.5 80L900 82L900 101L878.5 101C857 101 814 101 771.2 101C728.3 101 685.7 101 642.8 101C600 101 557 101 514.2 101C471.3 101 428.7 101 385.8 101C343 101 300 101 257.2 101C214.3 101 171.7 101 128.8 101C86 101 43 101 21.5 101L0 101Z" fill="#dc2f5e"></path><path d="M0 82L21.5 81C43 80 86 78 128.8 76.7C171.7 75.3 214.3 74.7 257.2 76.2C300 77.7 343 81.3 385.8 83.3C428.7 85.3 471.3 85.7 514.2 84.5C557 83.3 600 80.7 642.8 81.3C685.7 82 728.3 86 771.2 88.7C814 91.3 857 92.7 878.5 93.3L900 94L900 101L878.5 101C857 101 814 101 771.2 101C728.3 101 685.7 101 642.8 101C600 101 557 101 514.2 101C471.3 101 428.7 101 385.8 101C343 101 300 101 257.2 101C214.3 101 171.7 101 128.8 101C86 101 43 101 21.5 101L0 101Z" fill="#ff6f00"></path></svg>