<svg id="visual" viewBox="0 0 900 100" width="900" height="100" xmlns="http://www.w3.org/2000/svg" xmlns:xlink="http://www.w3.org/1999/xlink" version="1.1"><rect x="0" y="0" width="900" height="100" fill="#002233"></rect><path d="M0 28L21.5 27.5C43 27 86 26 128.8 24.8C171.7 23.7 214.3 22.3 257.2 21.7C300 21 343 21 385.8 25.2C428.7 29.3 471.3 37.7 514.2 40.8C557 44 600 42 642.8 39C685.7 36 728.3 32 771.2 27C814 22 857 16 878.5 13L900 10L900 101L878.5 101C857 101 814 101 771.2 101C728.3 101 685.7 101 642.8 101C600 101 557 101 514.2 101C471.3 101 428.7 101 385.8 101C343 101 300 101 257.2 101C214.3 101 171.7 101 128.8 101C86 101 43 101 21.5 101L0 101Z" fill="#002233"></path><path d="M0 43L21.5 42.7C43 42.3 86 41.7 128.8 39.5C171.7 37.3 214.3 33.7 257.2 33.5C300 33.3 343 36.7 385.8 35.7C428.7 34.7 471.3 29.3 514.2 28.8C557 28.3 600 32.7 642.8 36C685.7 39.3 728.3 41.7 771.2 42.5C814 43.3 857 42.7 878.5 42.3L900 42L900 101L878.5 101C857 101 814 101 771.2 101C728.3 101 685.7 101 642.8 101C600 101 557 101 514.2 101C471.3 101 428.7 101 385.8 101C343 101 300 101 257.2 101C214.3 101 171.7 101 128.8 101C86 101 43 101 21.5 101L0 101Z" fill="#30376a"></path><path d="M0 72L21.5 70.8C43 69.7 86 67.3 128.8 67.2C171.7 67 214.3 69 257.2 67.3C300 65.7 343 60.3 385.8 55.8C428.7 51.3 471.3 47.7 514.2 45.5C557 43.3 600 42.7 642.8 45.3C685.7 48 728.3 54 771.2 55.8C814 57.7 857 55.3 878.5 54.2L900 53L900 101L878.5 101C857 101 814 101 771.2 101C728.3 101 685.7 101 642.8 101C600 101 557 101 514.2 101C471.3 101 428.7 101 385.8 101C343 101 300 101 257.2 101C214.3 101 171.7 101 128.8 101C86 101 43 101 21.5 101L0 101Z" fill="#8f367f"></path><path d="M0 68L21.5 67.2C43 66.3 86 64.7 128.8 62.5C171.7 60.3 214.3 57.7 257.2 57.7C300 57.7 343 60.3 385.8 63.8C428.7 67.3 471.3 71.7 514.2 70.8C557 70 600 64 642.8 63.3C685.7 62.7 728.3 67.3 771.2 67.7C814 68 857 64 878.5 62L900 60L900 101L878.5 101C857 101 814 101 771.2 101C728.3 101 685.7 101 642.8 101C600 101 557 101 514.2 101C471.3 101 428.7 101 385.8 101C343 101 300 101 257.2 101C214.3 101 171.7 101 128.8 101C86 101 43 101 21.5 101L0 101Z" fill="#e1325f"></path><path d="M0 88L21.5 86.3C43 84.7 86 81.3 128.8 82C171.7 82.7 214.3 87.3 257.2 88.5C300 89.7 343 87.3 385.8 85.8C428.7 84.3 471.3 83.7 514.2 81.5C557 79.3 600 75.7 642.8 75.2C685.7 74.7 728.3 77.3 771.2 78.5C814 79.7 857 79.3 878.5 79.2L900 79L900 101L878.5 101C857 101 814 101 771.2 101C728.3 101 685.7 101 642.8 101C600 101 557 101 514.2 101C471.3 101 428.7 101 385.8 101C343 101 300 101 257.2 101C214.3 101 171.7 101 128.8 101C86 101 43 101 21.5 101L0 101Z" fill="#ff6f00"></path></svg>