<svg id="visual" viewBox="0 0 900 100" width="900" height="100" xmlns="http://www.w3.org/2000/svg" xmlns:xlink="http://www.w3.org/1999/xlink" version="1.1"><rect x="0" y="0" width="900" height="100" fill="#B22222"></rect><path d="M0 76L21.5 76.8C43 77.7 86 79.3 128.8 74.7C171.7 70 214.3 59 257.2 60.7C300 62.3 343 76.7 385.8 78.3C428.7 80 471.3 69 514.2 60C557 51 600 44 642.8 47.5C685.7 51 728.3 65 771.2 72C814 79 857 79 878.5 79L900 79L900 101L878.5 101C857 101 814 101 771.2 101C728.3 101 685.7 101 642.8 101C600 101 557 101 514.2 101C471.3 101 428.7 101 385.8 101C343 101 300 101 257.2 101C214.3 101 171.7 101 128.8 101C86 101 43 101 21.5 101L0 101Z" fill="#fff" stroke-linecap="round" stroke-linejoin="miter"></path></svg>