<svg id="visual" viewBox="0 0 900 100" width="900" height="100" xmlns="http://www.w3.org/2000/svg" xmlns:xlink="http://www.w3.org/1999/xlink" version="1.1"><rect x="0" y="0" width="900" height="100" fill="#fff"></rect><path d="M0 52L21.5 46.5C43 41 86 30 128.8 32.7C171.7 35.3 214.3 51.7 257.2 49.7C300 47.7 343 27.3 385.8 22.3C428.7 17.3 471.3 27.7 514.2 42.7C557 57.7 600 77.3 642.8 86C685.7 94.7 728.3 92.3 771.2 84.8C814 77.3 857 64.7 878.5 58.3L900 52L900 101L878.5 101C857 101 814 101 771.2 101C728.3 101 685.7 101 642.8 101C600 101 557 101 514.2 101C471.3 101 428.7 101 385.8 101C343 101 300 101 257.2 101C214.3 101 171.7 101 128.8 101C86 101 43 101 21.5 101L0 101Z" fill="#002233" stroke-linecap="round" stroke-linejoin="miter"></path></svg>