<svg id="visual" viewBox="0 0 900 100" width="900" height="100" xmlns="http://www.w3.org/2000/svg" xmlns:xlink="http://www.w3.org/1999/xlink" version="1.1"><rect x="0" y="0" width="900" height="100" fill="#fff"></rect><path d="M0 35L21.5 42.7C43 50.3 86 65.7 128.8 67.7C171.7 69.7 214.3 58.3 257.2 49.2C300 40 343 33 385.8 25.5C428.7 18 471.3 10 514.2 9.5C557 9 600 16 642.8 31C685.7 46 728.3 69 771.2 72C814 75 857 58 878.5 49.5L900 41L900 101L878.5 101C857 101 814 101 771.2 101C728.3 101 685.7 101 642.8 101C600 101 557 101 514.2 101C471.3 101 428.7 101 385.8 101C343 101 300 101 257.2 101C214.3 101 171.7 101 128.8 101C86 101 43 101 21.5 101L0 101Z" fill="#001722" stroke-linecap="round" stroke-linejoin="miter"></path></svg>