<svg id="visual" viewBox="0 0 900 100" width="900" height="100" xmlns="http://www.w3.org/2000/svg" xmlns:xlink="http://www.w3.org/1999/xlink" version="1.1"><rect x="0" y="0" width="900" height="100" fill="#fff"></rect><path d="M0 13L21.5 15.8C43 18.7 86 24.3 128.8 27.5C171.7 30.7 214.3 31.3 257.2 38C300 44.7 343 57.3 385.8 52.3C428.7 47.3 471.3 24.7 514.2 18C557 11.3 600 20.7 642.8 27.3C685.7 34 728.3 38 771.2 36.3C814 34.7 857 27.3 878.5 23.7L900 20L900 101L878.5 101C857 101 814 101 771.2 101C728.3 101 685.7 101 642.8 101C600 101 557 101 514.2 101C471.3 101 428.7 101 385.8 101C343 101 300 101 257.2 101C214.3 101 171.7 101 128.8 101C86 101 43 101 21.5 101L0 101Z" fill="#001017" stroke-linecap="round" stroke-linejoin="miter"></path></svg>